<svg xmlns="http://www.w3.org/2000/svg" xmlns:xlink="http://www.w3.org/1999/xlink" id="Layer_1" x="0" y="0" enable-background="new 0 0 512 512" version="1.1" viewBox="0 0 512 512" xml:space="preserve"><rect width="512" height="102.4" fill="#FF4B55"/><rect width="512" height="102.4" y="102.4" fill="#F5F5F5"/><g><rect width="512" height="102.4" y="204.8" fill="#FF4B55"/><rect width="512" height="102.4" y="409.6" fill="#FF4B55"/></g><rect width="512" height="102.4" y="307.2" fill="#F5F5F5"/><path fill="#41479B" d="M266.758,264.402c4.273-3.966,4.273-12.838,0-16.804L0,0v512L266.758,264.402z"/><path fill="#F5F5F5" d="M109.034,199.093l12.802,38.386l40.463,0.314c5.239,0.041,7.411,6.726,3.197,9.838l-32.551,24.037 l12.205,38.579c1.58,4.995-4.107,9.127-8.369,6.08l-32.92-23.53l-32.92,23.53c-4.262,3.046-9.949-1.085-8.369-6.08l12.205-38.579 l-32.551-24.037c-4.214-3.112-2.042-9.798,3.197-9.838l40.463-0.314l12.802-38.386C100.347,194.124,107.376,194.124,109.034,199.093 z"/></svg>