<svg xmlns="http://www.w3.org/2000/svg" xmlns:xlink="http://www.w3.org/1999/xlink" id="Layer_1" x="0" y="0" enable-background="new 0 0 512 512" version="1.1" viewBox="0 0 512 512" xml:space="preserve"><rect width="512" height="512" fill="#4173CD"/><g><rect width="512" height="26.947" y="350.32" fill="#FFE15A"/><rect width="512" height="26.947" y="404.21" fill="#FFE15A"/></g><polygon fill="#FF4B55" points="99.565 133.806 49.428 116.686 99.565 99.566 116.685 49.435 133.805 99.566 183.942 116.686 133.805 133.806 116.685 183.937"/><path fill="#F5F5F5" d="M116.685,58.444l14.826,43.415l43.416,14.826l-43.416,14.826l-14.826,43.415l-14.826-43.415 l-43.416-14.826l43.416-14.826L116.685,58.444 M116.685,40.421l-5.512,16.14L97.271,97.272l-40.71,13.902l-16.14,5.511l16.14,5.511 l40.71,13.902l13.902,40.711l5.512,16.14l5.512-16.14l13.902-40.711l40.71-13.902l16.14-5.511l-16.14-5.511l-40.71-13.902 l-13.902-40.711L116.685,40.421L116.685,40.421z"/></svg>