<svg xmlns="http://www.w3.org/2000/svg" xmlns:xlink="http://www.w3.org/1999/xlink" id="Layer_1" x="0" y="0" enable-background="new 0 0 512 512" version="1.1" viewBox="0 0 512 512" xml:space="preserve"><rect width="512" height="170.67" y="341.33" fill="#FF4B55"/><rect width="512" height="170.67" fill="#FFE15A"/><rect width="512" height="170.67" y="170.67" fill="#73AF00"/><path fill="#F5F5F5" d="M263.681,86.516l40.348,120.98l127.527,0.989c7.779,0.06,11.005,9.988,4.747,14.61l-102.591,75.758 l38.468,121.591c2.347,7.417-6.099,13.553-12.428,9.029L256,355.315l-103.753,74.159c-6.329,4.524-14.774-1.612-12.428-9.029 l38.468-121.591l-102.59-75.759c-6.258-4.621-3.032-14.549,4.747-14.61l127.527-0.989l40.348-120.98 C250.781,79.136,261.219,79.136,263.681,86.516z"/></svg>