<svg xmlns="http://www.w3.org/2000/svg" xmlns:xlink="http://www.w3.org/1999/xlink" id="Layer_1" x="0" y="0" enable-background="new 0 0 512 512" version="1.1" viewBox="0 0 512 512" xml:space="preserve"><rect width="512" height="512" fill="#73AF00"/><g><rect width="512" height="53.895" y="94.32" fill="#F5F5F5"/><rect width="512" height="53.895" y="363.79" fill="#F5F5F5"/></g><rect width="512" height="215.58" y="148.21" fill="#C8414B"/><path fill="#FFE15A" d="M252.644,172.99l-19.619,58.826l-62.01,0.481c-3.4,0.026-4.809,4.365-2.074,6.384l49.884,36.837 l-18.705,59.123c-1.025,3.241,2.665,5.923,5.431,3.946l50.45-36.06l50.45,36.06c2.766,1.977,6.456-0.704,5.431-3.946l-18.705-59.123 l49.884-36.837c2.735-2.02,1.325-6.358-2.074-6.384l-62.01-0.481l-19.619-58.826C258.281,169.765,253.719,169.765,252.644,172.99z"/></svg>