<svg xmlns="http://www.w3.org/2000/svg" xmlns:xlink="http://www.w3.org/1999/xlink" id="Layer_1" x="0" y="0" enable-background="new 0 0 512 512" version="1.1" viewBox="0 0 512 512" xml:space="preserve"><rect width="512" height="512" fill="#F5F5F5"/><rect width="317.76" height="56.889" x="194.24" y="56.889" fill="#4173CD"/><rect width="512" height="56.889" y="113.78" fill="#F5F5F5"/><rect width="317.76" height="56.889" x="194.24" y="170.67" fill="#4173CD"/><rect width="512" height="56.889" y="227.56" fill="#F5F5F5"/><rect width="512" height="56.889" y="284.44" fill="#4173CD"/><rect width="512" height="56.889" y="341.33" fill="#F5F5F5"/><rect width="512" height="56.889" y="398.22" fill="#4173CD"/><polygon fill="#FFE15A" points="97.646 35.665 120.187 139.961 155.456 125.352"/><polygon fill="#FFCD5A" points="97.646 35.665 137.821 132.656 120.187 139.961"/><polygon fill="#FFE15A" points="185.301 247.282 162.761 142.987 127.491 157.596"/><polygon fill="#FFCD5A" points="185.301 247.282 145.126 150.291 162.761 142.987"/><polygon fill="#FFE15A" points="247.282 97.646 142.987 120.187 157.596 155.456"/><polygon fill="#FFCD5A" points="247.282 97.646 150.291 137.821 142.987 120.187"/><polygon fill="#FFE15A" points="35.665 185.301 139.961 162.761 125.352 127.491"/><polygon fill="#FFCD5A" points="35.665 185.301 132.656 145.126 139.961 162.761"/><polygon fill="#FFE15A" points="185.301 35.665 127.491 125.352 162.761 139.961"/><polygon fill="#FFCD5A" points="185.301 35.665 145.126 132.656 127.491 125.352"/><polygon fill="#FFE15A" points="97.646 247.282 155.456 157.596 120.187 142.987"/><polygon fill="#FFCD5A" points="97.646 247.282 137.821 150.291 155.456 157.596"/><polygon fill="#FFE15A" points="247.282 185.301 157.596 127.491 142.987 162.761"/><polygon fill="#FFCD5A" points="247.282 185.301 150.291 145.126 157.596 127.491"/><polygon fill="#FFE15A" points="35.665 97.646 125.352 155.456 139.961 120.187"/><polygon fill="#FFCD5A" points="35.665 97.646 132.656 137.821 125.352 155.456"/><rect width="283" height="284" fill="#F5F5F5"/><polygon fill="#FFE15A" points="141.474 26.947 122.386 131.93 160.561 131.93"/><polygon fill="#FFCD5A" points="141.474 26.947 141.474 131.93 122.386 131.93"/><polygon fill="#FFE15A" points="141.474 256 160.561 151.018 122.386 151.018"/><polygon fill="#FFCD5A" points="141.474 256 141.474 151.018 160.561 151.018"/><polygon fill="#FFE15A" points="256 141.474 151.018 122.386 151.018 160.561"/><polygon fill="#FFCD5A" points="256 141.474 151.018 141.474 151.018 122.386"/><polygon fill="#FFE15A" points="26.947 141.474 131.93 160.561 131.93 122.386"/><polygon fill="#FFCD5A" points="26.947 141.474 131.93 141.474 131.93 160.561"/><polygon fill="#FFE15A" points="222.456 60.491 134.725 121.228 161.719 148.222"/><polygon fill="#FFCD5A" points="222.456 60.491 148.222 134.725 134.725 121.228"/><polygon fill="#FFE15A" points="60.491 222.456 148.222 161.719 121.228 134.725"/><polygon fill="#FFCD5A" points="60.491 222.456 134.725 148.222 148.222 161.719"/><polygon fill="#FFE15A" points="222.456 222.456 161.719 134.725 134.725 161.719"/><polygon fill="#FFCD5A" points="222.456 222.456 148.222 148.222 161.719 134.725"/><polygon fill="#FFE15A" points="60.491 60.491 121.228 148.222 148.222 121.228"/><polygon fill="#FFCD5A" points="60.491 60.491 134.725 134.725 121.228 148.222"/><circle cx="141.47" cy="141.47" r="38.17" fill="#FFE15A"/></svg>