<svg xmlns="http://www.w3.org/2000/svg" xmlns:xlink="http://www.w3.org/1999/xlink" id="Layer_1" x="0" y="0" enable-background="new 0 0 512 512" version="1.1" viewBox="0 0 512 512" xml:space="preserve"><rect width="170.67" height="512" x="341.33" fill="#41479B"/><rect width="170.67" height="512" x="170.67" fill="#FFE15A"/><rect width="170.67" height="512" fill="#41479B"/><polygon fill="#FF4B55" points="300.138 233.931 278.069 233.931 278.069 211.862 291.31 194.207 278.069 194.207 233.931 194.207 220.69 194.207 233.931 211.862 233.931 233.931 211.862 233.931 194.207 220.69 194.207 233.931 194.207 278.069 194.207 291.31 211.862 278.069 233.931 278.069 233.931 300.138 220.69 317.793 233.931 317.793 278.069 317.793 291.31 317.793 278.069 300.138 278.069 278.069 300.138 278.069 317.793 291.31 317.793 278.069 317.793 233.931 317.793 220.69"/><polygon fill="#F5F5F5" points="300.138 247.172 264.828 247.172 264.828 211.862 247.172 211.862 247.172 247.172 211.862 247.172 211.862 264.828 247.172 264.828 247.172 300.138 264.828 300.138 264.828 264.828 300.138 264.828"/></svg>